<svg width="40" height="40" viewBox="0 0 40 40" fill="none" xmlns="http://www.w3.org/2000/svg">
<path d="M22.6514 20.0001L30.0733 12.5782C30.4255 12.2266 30.6236 11.7494 30.6241 11.2517C30.6245 10.754 30.4272 10.2765 30.0756 9.9243C29.724 9.57206 29.2469 9.37392 28.7491 9.37348C28.2514 9.37304 27.7739 9.57033 27.4217 9.92195L19.9998 17.3438L12.578 9.92195C12.2257 9.56971 11.748 9.37183 11.2498 9.37183C10.7517 9.37183 10.274 9.56971 9.92171 9.92195C9.56947 10.2742 9.37158 10.7519 9.37158 11.2501C9.37158 11.7482 9.56947 12.226 9.92171 12.5782L17.3436 20.0001L9.92171 27.422C9.56947 27.7742 9.37158 28.2519 9.37158 28.7501C9.37158 29.2482 9.56947 29.726 9.92171 30.0782C10.274 30.4304 10.7517 30.6283 11.2498 30.6283C11.748 30.6283 12.2257 30.4304 12.578 30.0782L19.9998 22.6563L27.4217 30.0782C27.7739 30.4304 28.2517 30.6283 28.7498 30.6283C29.248 30.6283 29.7257 30.4304 30.078 30.0782C30.4302 29.726 30.6281 29.2482 30.6281 28.7501C30.6281 28.2519 30.4302 27.7742 30.078 27.422L22.6514 20.0001Z" fill="#033277"/>
</svg>
