<svg width="40" height="40" viewBox="0 0 40 40" fill="none" xmlns="http://www.w3.org/2000/svg">
<path d="M26.0167 20C26.0167 23.3167 23.3167 26.0167 20 26.0167C16.6833 26.0167 13.9833 23.3167 13.9833 20C13.9833 16.6833 16.6833 13.9833 20 13.9833C23.3167 13.9833 26.0167 16.6833 26.0167 20ZM20 0C8.97167 0 0 8.97167 0 20C0 31.0283 8.97167 40 20 40C24.04 40 27.935 38.7967 31.2667 36.5217L31.3233 36.4817L28.6283 33.35L28.5833 33.3783C26.0243 35.027 23.0441 35.9026 20 35.9C11.2333 35.9 4.1 28.7667 4.1 20C4.1 11.2333 11.2333 4.1 20 4.1C28.7667 4.1 35.9 11.2333 35.9 20C35.8977 21.149 35.7719 22.2945 35.525 23.4167C35.0233 25.4817 33.5767 26.1133 32.4917 26.03C31.4017 25.9417 30.125 25.1633 30.115 23.2617V20C30.1124 17.318 29.0459 14.7466 27.1496 12.8499C25.2533 10.9533 22.682 9.88642 20 9.88333C17.3177 9.88598 14.746 10.9527 12.8494 12.8494C10.9527 14.746 9.88598 17.3177 9.88333 20C9.88598 22.6823 10.9527 25.254 12.8494 27.1506C14.746 29.0473 17.3177 30.114 20 30.1167C21.3331 30.1199 22.6534 29.8575 23.8839 29.3446C25.1144 28.8318 26.2304 28.079 27.1667 27.13C27.7584 28.0593 28.5767 28.8229 29.5446 29.3491C30.5125 29.8753 31.5983 30.1469 32.7 30.1383C34.1567 30.1383 35.6 29.6517 36.7617 28.77C37.96 27.8583 38.855 26.5433 39.35 24.9617C39.4283 24.705 39.575 24.1217 39.575 24.1167L39.5783 24.095C39.87 22.8283 40 21.5617 40 20C40 8.97167 31.0283 0 20 0Z" fill="white"/>
</svg>
