<svg width="40" height="40" viewBox="0 0 40 40" fill="none" xmlns="http://www.w3.org/2000/svg">
<path d="M35.9375 4.06248L17.7344 22.2656M4.15002 15.6203L35.4 3.79295C35.5127 3.74983 35.6356 3.74028 35.7536 3.76545C35.8717 3.79061 35.9799 3.84942 36.0652 3.93477C36.1506 4.02011 36.2094 4.12835 36.2346 4.24639C36.2597 4.36444 36.2502 4.48725 36.207 4.59998L24.3797 35.85C24.3327 35.9686 24.2504 36.0701 24.144 36.1406C24.0376 36.2111 23.9122 36.2474 23.7845 36.2445C23.6569 36.2416 23.5332 36.1997 23.4301 36.1244C23.327 36.0491 23.2494 35.9441 23.2078 35.8234L17.9422 22.8476C17.8808 22.6637 17.7775 22.4967 17.6404 22.3596C17.5033 22.2225 17.3363 22.1192 17.1524 22.0578L4.17659 16.7969C4.05435 16.7562 3.94766 16.6787 3.87113 16.5751C3.7946 16.4715 3.75197 16.3467 3.74906 16.2179C3.74615 16.0891 3.78312 15.9626 3.85489 15.8556C3.92666 15.7486 4.02974 15.6664 4.15002 15.6203V15.6203Z" stroke="#D60015" stroke-width="3" stroke-linecap="round" stroke-linejoin="round"/>
</svg>
