<svg width="20" height="20" viewBox="0 0 20 20" fill="none" xmlns="http://www.w3.org/2000/svg">
<g clip-path="url(#clip0_616_392)">
<path d="M17.9687 2.03136L8.86714 11.1329M2.07495 7.81027L17.6999 1.8966C17.7563 1.87504 17.8177 1.87026 17.8767 1.88284C17.9358 1.89543 17.9899 1.92483 18.0326 1.96751C18.0752 2.01018 18.1046 2.0643 18.1172 2.12332C18.1298 2.18234 18.125 2.24375 18.1035 2.30011L12.1898 17.9251C12.1663 17.9844 12.1251 18.0352 12.0719 18.0704C12.0187 18.1057 11.956 18.1238 11.8922 18.1224C11.8284 18.1209 11.7665 18.1 11.715 18.0623C11.6635 18.0247 11.6247 17.9722 11.6039 17.9118L8.97104 11.4239C8.94035 11.332 8.88869 11.2485 8.82015 11.1799C8.75161 11.1114 8.66806 11.0597 8.57612 11.029L2.08823 8.39855C2.02711 8.37821 1.97377 8.33949 1.93551 8.28767C1.89724 8.23586 1.87592 8.17348 1.87447 8.10908C1.87302 8.04469 1.8915 7.98141 1.92738 7.92792C1.96327 7.87443 2.01481 7.83334 2.07495 7.81027V7.81027Z" stroke="#21386C" stroke-width="2" stroke-linecap="round" stroke-linejoin="round"/>
</g>
<defs>
<clipPath id="clip0_616_392">
<rect width="20" height="20" fill="white"/>
</clipPath>
</defs>
</svg>
