<svg width="40" height="36" viewBox="0 0 40 36" fill="none" xmlns="http://www.w3.org/2000/svg">
<path d="M26.8073 20.5036C26.2759 19.9862 25.6792 19.5266 25.0291 19.134C27.6504 17.3102 29.4875 14.7245 30.2273 11.8178C30.2828 11.6075 30.2915 11.3893 30.2529 11.1759C30.2142 10.9625 30.1289 10.7582 30.002 10.5746C29.875 10.3911 29.7089 10.232 29.5133 10.1065C29.3176 9.9811 29.0963 9.8918 28.8621 9.8438C28.6278 9.7958 28.3853 9.79005 28.1486 9.82689C27.9119 9.86372 27.6857 9.94241 27.4829 10.0584C27.2802 10.1744 27.105 10.3254 26.9675 10.5027C26.83 10.68 26.7329 10.88 26.6818 11.0913C26.3377 12.4512 25.6681 13.7271 24.7198 14.8302C23.7715 15.9333 22.5672 16.8369 21.1909 17.478V11.4578C21.1794 11.3376 21.1526 11.219 21.1109 11.1044C21.0986 11.0096 21.0773 10.916 21.0473 10.8245C20.9698 10.6751 20.8674 10.5371 20.7436 10.4155C20.7109 10.3827 20.6945 10.3369 20.66 10.3042C20.5269 10.1936 20.3761 10.1015 20.2127 10.0309C20.1655 10.008 20.1309 9.97036 20.0818 9.95236C19.9428 9.91047 19.7988 9.88355 19.6527 9.87218C19.5623 9.84848 19.4699 9.83152 19.3764 9.82145L18.1873 9.81818H18.1818C17.7558 9.81547 17.3425 9.94813 17.0145 10.1928C16.6866 10.4375 16.465 10.7784 16.389 11.1556C16.3129 11.5329 16.3872 11.9221 16.5988 12.2549C16.8103 12.5877 17.1456 12.8426 17.5455 12.9747V20.9765C14.6642 18.2849 12.7562 14.8711 12.0727 11.1845C11.9922 10.7566 11.7261 10.375 11.3329 10.1237C10.9398 9.87237 10.4518 9.77189 9.97636 9.84436C9.5009 9.91684 9.07691 10.1563 8.79765 10.5102C8.51839 10.864 8.40674 11.3032 8.48727 11.7311C9.5497 17.4301 13.0807 22.5171 18.3055 25.8758C18.3801 25.9158 18.4579 25.9508 18.5382 25.9805C18.6015 26.0138 18.6671 26.0433 18.7345 26.0689C18.9371 26.1419 19.1527 26.1813 19.3709 26.1851C19.6385 26.1821 19.902 26.1251 20.1418 26.0182C20.16 26.01 20.18 26.0149 20.1982 26.0067C20.3589 25.931 20.506 25.8339 20.6345 25.7187C20.6618 25.6958 20.6782 25.6696 20.7036 25.6451C20.821 25.5292 20.919 25.3986 20.9945 25.2573C21.0196 25.2108 21.042 25.1633 21.0618 25.1149C21.1417 24.9346 21.1848 24.7428 21.1891 24.5487V21.0698C22.3165 21.3672 23.3324 21.9358 24.1273 22.7144L27.1218 25.6549C27.4478 25.9748 27.9016 26.165 28.3834 26.1837C28.8652 26.2024 29.3355 26.0481 29.6909 25.7547C30.0463 25.4613 30.2576 25.0529 30.2784 24.6193C30.2992 24.1857 30.1278 23.7624 29.8018 23.4425L26.8073 20.5036ZM25.5873 0H14.4309C3.23636 0 0 2.90945 0 12.9715V23.0122C0 33.0873 3.23273 36 14.4127 36H25.5691C36.7636 36 40 33.0905 40 23.0285V12.9878C40 2.91273 36.7673 0 25.5873 0ZM36.3636 23.0285C36.3636 31.2758 34.7491 32.7273 25.5673 32.7273H14.4145C5.24909 32.7273 3.63636 31.2742 3.63636 23.0105V12.9731C3.63636 4.72418 5.25091 3.27273 14.4327 3.27273H25.5873C34.7509 3.27273 36.3636 4.72582 36.3636 12.9895V23.0285Z" fill="white"/>
</svg>
