<svg width="20" height="18" viewBox="0 0 20 18" fill="none" xmlns="http://www.w3.org/2000/svg">
<path d="M13.4036 10.2518C13.138 9.99311 12.8396 9.76328 12.5145 9.567C13.8252 8.6551 14.7438 7.36224 15.1136 5.90891C15.1414 5.80374 15.1458 5.69466 15.1264 5.58796C15.1071 5.48127 15.0645 5.37908 15.001 5.28731C14.9375 5.19553 14.8545 5.11599 14.7566 5.05327C14.6588 4.99055 14.5481 4.9459 14.431 4.9219C14.3139 4.8979 14.1927 4.89503 14.0743 4.91344C13.956 4.93186 13.8428 4.9712 13.7415 5.0292C13.6401 5.0872 13.5525 5.1627 13.4838 5.25134C13.415 5.33998 13.3665 5.44001 13.3409 5.54564C13.1689 6.22559 12.8341 6.86357 12.3599 7.41511C11.8857 7.96664 11.2836 8.41844 10.5955 8.739V5.72891C10.5897 5.66881 10.5763 5.60951 10.5555 5.55218C10.5493 5.50482 10.5386 5.45801 10.5236 5.41227C10.4849 5.33754 10.4337 5.26856 10.3718 5.20773C10.3555 5.19136 10.3473 5.16845 10.33 5.15209C10.2634 5.09678 10.1881 5.05073 10.1064 5.01545C10.0827 5.004 10.0655 4.98518 10.0409 4.97618C9.97141 4.95523 9.89939 4.94178 9.82636 4.93609C9.78115 4.92424 9.73494 4.91576 9.68818 4.91073L9.09364 4.90909H9.09091C8.87792 4.90773 8.67124 4.97406 8.50726 5.0964C8.34328 5.21873 8.23252 5.38921 8.1945 5.57782C8.15647 5.76644 8.19362 5.96107 8.2994 6.12746C8.40517 6.29384 8.57279 6.42129 8.77273 6.48736V10.4883C7.33209 9.14247 6.3781 7.43555 6.03636 5.59227C5.9961 5.37832 5.86305 5.18752 5.66647 5.06185C5.4699 4.93618 5.22591 4.88594 4.98818 4.92218C4.75045 4.95842 4.53845 5.07817 4.39882 5.25508C4.25919 5.432 4.20337 5.65159 4.24364 5.86555C4.77485 8.71505 6.54034 11.2585 9.15273 12.9379C9.19005 12.9579 9.22895 12.9754 9.26909 12.9903C9.30073 13.0069 9.33353 13.0216 9.36727 13.0345C9.46857 13.0709 9.57637 13.0906 9.68546 13.0925C9.81926 13.0911 9.95099 13.0625 10.0709 13.0091C10.08 13.005 10.09 13.0075 10.0991 13.0034C10.1794 12.9655 10.253 12.917 10.3173 12.8594C10.3309 12.8479 10.3391 12.8348 10.3518 12.8225C10.4105 12.7646 10.4595 12.6993 10.4973 12.6286C10.5098 12.6054 10.521 12.5817 10.5309 12.5575C10.5708 12.4673 10.5924 12.3714 10.5945 12.2744V10.5349C11.1582 10.6836 11.6662 10.9679 12.0636 11.3572L13.5609 12.8275C13.7239 12.9874 13.9508 13.0825 14.1917 13.0918C14.4326 13.1012 14.6678 13.0241 14.8455 12.8774C15.0232 12.7307 15.1288 12.5265 15.1392 12.3097C15.1496 12.0928 15.0639 11.8812 14.9009 11.7213L13.4036 10.2518ZM12.7936 0L7.21546 0C1.61818 0 0 1.45473 0 6.48573L0 11.5061C0 16.5436 1.61636 18 7.20636 18L12.7845 18C18.3818 18 20 16.5453 20 11.5143L20 6.49391C20 1.45636 18.3836 0 12.7936 0ZM18.1818 11.5143C18.1818 15.6379 17.3745 16.3636 12.7836 16.3636L7.20727 16.3636C2.62455 16.3636 1.81818 15.6371 1.81818 11.5053L1.81818 6.48655C1.81818 2.36209 2.62545 1.63636 7.21636 1.63636L12.7936 1.63636C17.3755 1.63636 18.1818 2.36291 18.1818 6.49473L18.1818 11.5143Z" fill="#21386C"/>
</svg>
